<svg width="920" height="680" viewBox="0 0 920 680" xmlns="http://www.w3.org/2000/svg">
  <defs>
    <linearGradient id="bg" x1="0%" y1="0%" x2="100%" y2="100%">
      <stop offset="0%" style="stop-color:#0a0a0f"/>
      <stop offset="100%" style="stop-color:#0f1419"/>
    </linearGradient>
    <linearGradient id="glow" x1="0%" y1="0%" x2="100%" y2="0%">
      <stop offset="0%" style="stop-color:#00d4ff"/>
      <stop offset="100%" style="stop-color:#0088cc"/>
    </linearGradient>
  </defs>

  <!-- Background -->
  <rect width="920" height="680" fill="url(#bg)"/>

  <!-- Grid pattern -->
  <g opacity="0.03">
    <line x1="0" y1="68" x2="920" y2="68" stroke="#00d4ff" stroke-width="1"/>
    <line x1="0" y1="136" x2="920" y2="136" stroke="#00d4ff" stroke-width="1"/>
    <line x1="0" y1="204" x2="920" y2="204" stroke="#00d4ff" stroke-width="1"/>
    <line x1="0" y1="272" x2="920" y2="272" stroke="#00d4ff" stroke-width="1"/>
    <line x1="0" y1="340" x2="920" y2="340" stroke="#00d4ff" stroke-width="1"/>
    <line x1="0" y1="408" x2="920" y2="408" stroke="#00d4ff" stroke-width="1"/>
    <line x1="0" y1="476" x2="920" y2="476" stroke="#00d4ff" stroke-width="1"/>
    <line x1="0" y1="544" x2="920" y2="544" stroke="#00d4ff" stroke-width="1"/>
    <line x1="0" y1="612" x2="920" y2="612" stroke="#00d4ff" stroke-width="1"/>
    <line x1="92" y1="0" x2="92" y2="680" stroke="#00d4ff" stroke-width="1"/>
    <line x1="184" y1="0" x2="184" y2="680" stroke="#00d4ff" stroke-width="1"/>
    <line x1="276" y1="0" x2="276" y2="680" stroke="#00d4ff" stroke-width="1"/>
    <line x1="368" y1="0" x2="368" y2="680" stroke="#00d4ff" stroke-width="1"/>
    <line x1="460" y1="0" x2="460" y2="680" stroke="#00d4ff" stroke-width="1"/>
    <line x1="552" y1="0" x2="552" y2="680" stroke="#00d4ff" stroke-width="1"/>
    <line x1="644" y1="0" x2="644" y2="680" stroke="#00d4ff" stroke-width="1"/>
    <line x1="736" y1="0" x2="736" y2="680" stroke="#00d4ff" stroke-width="1"/>
    <line x1="828" y1="0" x2="828" y2="680" stroke="#00d4ff" stroke-width="1"/>
  </g>

  <!-- Glow circles -->
  <circle cx="460" cy="200" r="100" fill="#00d4ff" opacity="0.1"/>
  <circle cx="460" cy="200" r="70" fill="#00d4ff" opacity="0.08"/>

  <!-- Brand name -->
  <text x="460" y="370" font-family="Arial Black, Helvetica, sans-serif" font-size="64" font-weight="900" fill="#00d4ff" text-anchor="middle" letter-spacing="5">WHALESHIELD</text>

  <!-- Tagline -->
  <text x="460" y="420" font-family="Arial, Helvetica, sans-serif" font-size="24" fill="#888888" text-anchor="middle" letter-spacing="3">AI-POWERED RUG PROTECTION</text>

  <!-- Features -->
  <g font-family="Arial, Helvetica, sans-serif" font-size="18" fill="#666666">
    <text x="200" y="520" text-anchor="middle">Honeypot Detection</text>
    <text x="460" y="520" text-anchor="middle">Rug Pull Alerts</text>
    <text x="720" y="520" text-anchor="middle">Deployer Intel</text>
  </g>

  <!-- Feature icons (circles) -->
  <circle cx="200" cy="480" r="20" fill="none" stroke="#22c55e" stroke-width="2" opacity="0.6"/>
  <text x="200" y="487" font-size="20" text-anchor="middle" fill="#22c55e">✓</text>

  <circle cx="460" cy="480" r="20" fill="none" stroke="#f59e0b" stroke-width="2" opacity="0.6"/>
  <text x="460" y="487" font-size="20" text-anchor="middle" fill="#f59e0b">⚠</text>

  <circle cx="720" cy="480" r="20" fill="none" stroke="#00d4ff" stroke-width="2" opacity="0.6"/>
  <text x="720" y="487" font-size="20" text-anchor="middle" fill="#00d4ff">🔍</text>

  <!-- Bottom accent -->
  <rect x="310" y="580" width="300" height="3" fill="url(#glow)" opacity="0.5" rx="1"/>

  <!-- Corner accents -->
  <path d="M0 0 L50 0 L50 4 L4 4 L4 50 L0 50 Z" fill="#00d4ff" opacity="0.3"/>
  <path d="M920 0 L870 0 L870 4 L916 4 L916 50 L920 50 Z" fill="#00d4ff" opacity="0.3"/>
  <path d="M0 680 L50 680 L50 676 L4 676 L4 630 L0 630 Z" fill="#00d4ff" opacity="0.3"/>
  <path d="M920 680 L870 680 L870 676 L916 676 L916 630 L920 630 Z" fill="#00d4ff" opacity="0.3"/>

  <!-- Border -->
  <rect x="0" y="0" width="920" height="680" fill="none" stroke="#00d4ff" stroke-width="1" opacity="0.3"/>
</svg>
